<?xml version="1.0" encoding="UTF-8" standalone="no"?>
<!-- Generator: Adobe Illustrator 16.0.0, SVG Export Plug-In . SVG Version: 6.00 Build 0)  -->

<svg
   version="1.1"
   id="Layer_1"
   x="0px"
   y="0px"
   width="141.73"
   height="141.73"
   viewBox="0 0 141.73 141.73"
   enable-background="new 0 0 141.73 141.73"
   xml:space="preserve"
   sodipodi:docname="love.svg"
   inkscape:version="1.1.2 (0a00cf5339, 2022-02-04)"
   xmlns:inkscape="http://www.inkscape.org/namespaces/inkscape"
   xmlns:sodipodi="http://sodipodi.sourceforge.net/DTD/sodipodi-0.dtd"
   xmlns="http://www.w3.org/2000/svg"
   xmlns:svg="http://www.w3.org/2000/svg"><defs
   id="defs33" /><sodipodi:namedview
   id="namedview31"
   pagecolor="#ffffff"
   bordercolor="#666666"
   borderopacity="1.0"
   inkscape:pageshadow="2"
   inkscape:pageopacity="0.0"
   inkscape:pagecheckerboard="0"
   showgrid="false"
   units="px"
   inkscape:zoom="4.1459518"
   inkscape:cx="73.203938"
   inkscape:cy="80.560511"
   inkscape:window-width="1920"
   inkscape:window-height="1050"
   inkscape:window-x="1920"
   inkscape:window-y="0"
   inkscape:window-maximized="1"
   inkscape:current-layer="layer3" />



<circle
   style="fill:#191419;fill-rule:evenodd;stroke-width:1.11613;fill-opacity:1"
   id="path57"
   cx="70.864998"
   cy="70.864998"
   r="70.864998" /><g
   inkscape:groupmode="layer"
   id="layer1"
   inkscape:label="face"
   style="display:none"
   sodipodi:insensitive="true"><path
     style="fill:#91ff9a;fill-opacity:1;stroke-width:0.161467"
     d="m 68.27974,131.02326 c -3.98234,-0.75557 -7.37606,-2.53323 -10.26897,-5.37894 -2.34859,-2.31027 -11.75449,-15.35573 -16.76668,-23.25445 -1.44097,-2.27081 -5.29569,-8.591903 -5.29569,-8.684013 0,-0.0321 -0.22808,-0.443 -0.50684,-0.91315 C 31.62008,86.347622 27.80826,78.15525 25.8672,72.215536 24.097075,66.798893 23.595682,63.931068 23.612887,59.321546 23.662157,46.113359 29.00346,33.309534 38.28943,24.139645 49.20581,13.359735 63.87315,8.6617108 78.65644,11.209894 c 9.41725,1.623248 17.82331,6.039858 24.8767,13.070413 8.34866,8.321642 13.23166,18.843353 14.4522,31.141126 0.26727,2.693012 0.11107,7.915966 -0.30496,10.197329 -2.06164,11.305135 -9.00803,26.129885 -20.42767,43.596098 -4.20966,6.43863 -9.72613,14.02502 -11.72842,16.12918 -2.5811,2.71244 -5.41241,4.36557 -9.19364,5.36791 -1.28345,0.34023 -2.00674,0.4213 -4.21363,0.47231 -1.82853,0.0423 -3.03215,-0.008 -3.83728,-0.161 z m 7.14736,-4.45186 c 1.61671,-0.42409 3.91267,-1.52372 5.19667,-2.48893 1.6937,-1.27318 2.4765,-2.19449 6.59595,-7.76305 2.32592,-3.14414 8.61967,-12.51935 9.92241,-14.78049 0.13448,-0.23341 0.98009,-1.653523 1.87915,-3.155823 2.68506,-4.48667 3.99344,-6.86626 6.25158,-11.36996 4.61963,-9.213523 6.97177,-15.542306 8.22105,-22.119934 0.46299,-2.437765 0.49478,-7.87975 0.0641,-10.980808 C 111.67422,40.347287 104.6371,28.889972 93.77971,21.710904 88.57603,18.270156 82.9048,16.112652 76.47659,15.128277 74.28793,14.793111 66.83132,14.849125 64.60876,15.217427 48.28308,17.922699 35.19308,29.472549 29.98321,45.76897 c -1.97143,6.166579 -2.66751,13.378475 -1.78766,18.521019 1.27283,7.439325 5.85825,18.020591 12.92594,29.827728 1.31207,2.19191 1.73731,2.87764 3.77766,6.091723 5.12991,8.0809 14.18098,20.61507 16.39341,22.70202 2.23834,2.11141 5.16764,3.57094 7.99875,3.98544 1.54445,0.22612 4.66366,0.0606 6.13574,-0.32548 z M 55.03543,100.65588 c -1.16188,-0.5048 -1.61465,-1.558873 -1.17092,-2.725983 0.0851,-0.22383 1.31788,-1.57277 2.73952,-2.99765 l 2.58479,-2.59068 h 11.68475 11.68475 l 2.67103,2.71133 c 1.95147,1.98091 2.70165,2.85074 2.78468,3.22878 0.33226,1.51277 -1.23948,2.950543 -2.69893,2.468883 -0.32728,-0.10802 -1.2926,-0.940853 -2.54125,-2.192513 l -2.01349,-2.01834 h -9.88229 -9.88228 l -1.9337,1.94004 c -1.74256,1.748263 -2.67425,2.431993 -3.28842,2.413243 -0.11386,-0.004 -0.44606,-0.11018 -0.73824,-0.23711 z m 8.18442,-17.4021 c -0.35276,-0.23697 -0.63335,-0.611696 -0.78587,-1.049537 -0.20865,-0.598954 -0.20865,-0.762983 0,-1.361945 0.34133,-0.979815 1.1151,-1.470406 2.16481,-1.372542 0.66171,0.0617 0.88827,0.173587 1.33211,0.657892 1.65709,1.808201 -0.67311,4.495169 -2.71105,3.126132 z m 13.00166,0.06412 c -0.52705,-0.321403 -1.0366,-1.203541 -1.0366,-1.794599 0,-0.587579 0.50791,-1.471586 1.0366,-1.804186 0.37281,-0.234529 0.69696,-0.295596 1.29465,-0.243927 0.6655,0.0575 0.88573,0.165414 1.3321,0.652491 1.61292,1.760002 -0.58822,4.433315 -2.62675,3.190221 z M 53.38684,70.763757 C 46.3577,70.113734 41.9382,68.532792 38.90073,65.581804 c -3.3709,-3.274923 -5.21287,-7.192482 -5.21287,-11.086908 0,-3.749194 1.54571,-6.981802 4.58298,-9.58456 0.98049,-0.840225 3.34371,-2.038384 4.70138,-2.383609 4.31317,-1.096762 8.91972,0.26225 13.00476,3.836623 1.6303,1.42649 2.46691,2.477253 3.43934,4.319711 1.98281,3.756822 2.86047,8.228329 2.85807,14.561333 -0.002,4.00937 -0.11777,4.557549 -1.09454,5.161225 -0.53113,0.328253 -0.79586,0.355223 -3.81855,0.389025 -1.78631,0.01994 -3.57483,0.0063 -3.97446,-0.03085 z m 4.64851,-6.194532 c 0.11185,-4.834966 -1.062,-10.045275 -2.90124,-12.877609 -0.64869,-0.998951 -2.11935,-2.431441 -3.41783,-3.329112 -1.94816,-1.346824 -4.65341,-2.147355 -6.54106,-1.935628 -4.00544,0.449278 -7.28922,4.04335 -7.28922,7.978025 0,3.062794 2.09127,6.808009 5.03252,9.012665 2.63398,1.97434 8.25905,3.276765 13.7784,3.190248 l 1.29174,-0.02021 z m 23.68896,6.147254 c -1.00155,-0.129636 -1.40724,-0.349115 -1.886,-1.020341 -0.3672,-0.514825 -0.37441,-0.600903 -0.36839,-4.400308 0.01,-6.34183 0.80661,-10.614639 2.664,-14.289836 1.97442,-3.906722 5.75073,-7.018277 10.11994,-8.338489 1.81109,-0.547241 4.82115,-0.620684 6.4959,-0.158484 4.43101,1.222875 7.67647,4.471632 8.97224,8.981376 0.44817,1.559829 0.42043,4.503628 -0.0586,6.216477 -0.35258,1.260745 -1.5253,3.87579 -2.0275,4.521083 -0.13821,0.177611 -0.52952,0.70247 -0.86955,1.166342 -3.25615,4.441952 -8.01988,6.62479 -15.93749,7.302874 -2.08659,0.178702 -5.79521,0.18878 -7.10456,0.01932 z m 6.28809,-4.220237 c 5.85012,-0.443493 9.60828,-1.753215 12.04409,-4.197382 3.6634,-3.675957 4.70785,-7.691774 2.93615,-11.28928 -2.24175,-4.552006 -7.44717,-5.892963 -12.15802,-3.132016 -3.85501,2.259374 -5.65645,5.152926 -6.67229,10.717386 -0.39763,2.178143 -0.71543,7.536563 -0.47163,7.952254 0.0993,0.169286 1.65904,0.150892 4.3217,-0.05097 z"
     id="path1396" /></g><g
   inkscape:groupmode="layer"
   id="layer3"
   inkscape:label="gradient" /><g
   inkscape:groupmode="layer"
   id="layer2"
   inkscape:label="ship-1"
   style="display:inline"><path
     style="fill:#abffad;fill-opacity:1;stroke-width:0.389305"
     d="m 64.956572,120.53694 c -9.692497,-1.52655 -18.362616,-5.98622 -22.579571,-11.61432 l -1.312765,-1.75205 h -8.820438 c -8.479938,0 -8.886673,-0.0349 -10.536219,-0.90515 -2.428132,-1.28093 -3.453045,-3.22761 -3.461247,-6.574152 -0.01347,-5.491377 2.980977,-11.539303 8.070646,-16.300437 2.888569,-2.702114 8.697678,-6.626845 11.253066,-7.602756 l 1.634097,-0.624069 0.151713,-16.601039 c 0.170349,-18.640599 0.278234,-19.486517 3.252343,-25.501361 2.184925,-4.4188 4.018613,-6.671897 5.429926,-6.671897 1.722957,0 1.704145,1.278338 -0.05252,3.567926 -2.091301,2.72576 -4.312129,7.655156 -5.006229,11.111938 -0.482303,2.401967 -0.602524,6.033458 -0.602524,18.200026 v 15.199322 h 4.713317 c 3.834968,0 4.675105,-0.09957 4.508285,-0.534298 -2.999062,-7.815434 -4.039384,-20.475177 -2.243483,-27.301035 1.144893,-4.351493 2.479931,-6.880124 5.12584,-9.708614 3.919994,-4.190483 8.922085,-6.042133 16.35039,-6.052499 11.491071,-0.01604 18.638434,5.1313 21.44515,15.444237 0.673167,2.473475 0.830782,4.16978 0.843333,9.076246 0.01631,6.38446 -0.464418,9.814716 -2.223534,15.865432 l -0.933395,3.210531 h 4.645702 4.645703 L 99.137474,57.826116 99.020788,41.183313 97.870898,37.874216 C 97.150233,35.800343 95.842194,33.264082 94.366722,31.079714 85.47416,17.914628 67.672896,14.503037 54.644284,23.466956 c -2.112015,1.453106 -3.702706,1.39592 -3.702706,-0.133111 0,-1.680172 6.60731,-5.497058 12.015657,-6.941162 4.155286,-1.109518 11.52152,-1.109801 15.675466,-7.8e-4 12.212505,3.261013 21.357031,13.361494 23.272199,25.705028 0.25238,1.626602 0.42499,8.832676 0.42499,17.742199 v 15.003096 l 1.65454,0.832132 c 6.57089,3.304728 12.82099,8.348872 15.6777,12.652697 1.97063,2.968878 3.26671,6.332226 3.6662,9.513883 0.57003,4.539702 -0.39211,6.871782 -3.48766,8.453512 -1.62332,0.82948 -2.17961,0.87709 -10.48845,0.89766 l -8.77421,0.0217 -1.654456,2.09663 c -2.487494,3.15248 -8.62682,7.59274 -10.497869,7.59274 -0.971456,0 -1.831923,-0.95786 -1.541154,-1.71559 0.117679,-0.30668 1.451544,-1.28036 2.96414,-2.16378 1.512599,-0.8834 3.757147,-2.55539 4.987885,-3.71552 l 2.237707,-2.10936 -25.986132,-0.0142 c -14.793928,-0.007 -25.986133,0.13396 -25.986133,0.32981 0,0.56439 3.002638,3.10395 5.776812,4.88587 8.075471,5.18707 19.840414,6.91357 29.64166,4.3499 2.470918,-0.6463 3.630408,-0.29172 3.438361,1.05148 -0.161403,1.12888 -1.432574,1.67787 -5.546012,2.39519 -3.112051,0.5427 -10.91693,0.73986 -13.456247,0.33992 z m 54.324678,-17.36959 c 1.36264,-1.17209 1.64132,-3.584442 0.79548,-6.886039 -1.63201,-6.370359 -7.50358,-12.679422 -15.91614,-17.102068 l -3.0356,-1.595879 -30.250007,0.0019 -30.249997,0.0019 -2.685273,1.378002 c -5.759461,2.955652 -11.01615,7.288519 -13.592729,11.203989 -2.680951,4.074076 -4.003702,9.608873 -2.836043,11.866885 0.342114,0.66158 0.928606,1.38144 1.303317,1.59967 0.452346,0.26348 16.602005,0.4008 48.057512,0.40866 l 47.37621,0.0118 z M 41.663758,96.991891 c -5.197554,-2.57271 -5.138223,-10.062968 0.09854,-12.441389 2.883066,-1.309422 6.121063,-0.66122 8.277407,1.65702 1.80615,1.941761 2.204857,5.173033 0.943293,7.644849 -0.910557,1.78408 -1.794926,2.60337 -3.644244,3.37606 -1.966584,0.821697 -3.681516,0.750217 -5.675002,-0.23654 z m 5.821019,-3.37555 c 2.702331,-2.414531 0.90773,-6.689649 -2.808173,-6.689649 -2.238448,0 -3.856965,1.633662 -3.856965,3.893054 0,3.526985 3.979105,5.196575 6.665138,2.796595 z m 20.185237,3.33496 c -5.108757,-2.58086 -5.108757,-9.68225 0,-12.263115 3.194076,-1.613596 6.438402,-0.876846 8.736297,1.983908 1.077161,1.341009 1.202576,1.770947 1.201645,4.119377 -7.78e-4,2.28875 -0.143642,2.80906 -1.122722,4.09269 -1.282726,1.68175 -3.693547,2.922047 -5.70392,2.934527 -0.757571,0.005 -2.157657,-0.38562 -3.1113,-0.867387 z m 5.88122,-3.37647 c 2.507723,-2.50772 0.791875,-6.648139 -2.755082,-6.648139 -1.268263,0 -1.862605,0.245488 -2.755083,1.137971 -0.892483,0.892479 -1.137971,1.486819 -1.137971,2.755083 0,1.268263 0.245488,1.862605 1.137971,2.755085 0.892478,0.89248 1.48682,1.13797 2.755083,1.13797 1.268263,0 1.862604,-0.24549 2.755082,-1.13797 z m 20.202239,3.37647 c -5.020731,-2.53639 -5.117477,-9.449441 -0.171446,-12.250781 5.012126,-2.838772 11.218513,1.712071 10.144263,7.43829 -0.56811,3.028351 -3.769833,5.688428 -6.846678,5.688428 -0.765733,0 -2.172497,-0.39417 -3.126139,-0.875937 z m 5.881228,-3.37647 c 2.507719,-2.50772 0.791869,-6.648139 -2.755089,-6.648139 -1.268264,0 -1.862605,0.245488 -2.755084,1.137971 -0.892483,0.892479 -1.13797,1.486819 -1.13797,2.755083 0,1.268263 0.245487,1.862605 1.13797,2.755085 0.892479,0.89248 1.48682,1.13797 2.755084,1.13797 1.268271,0 1.862604,-0.24549 2.755089,-1.13797 z M 87.269172,72.814373 c 1.776976,-4.76298 2.992247,-11.915103 2.992247,-17.60999 0,-12.89279 -5.391524,-19.95018 -16.256308,-21.279159 -8.996182,-1.100414 -16.785512,2.285222 -20.038557,8.709765 -1.924947,3.801641 -2.439897,6.544894 -2.431402,12.952621 0.0082,6.184857 0.512995,9.539543 2.35789,15.669542 l 0.966618,3.211769 H 70.755777 86.651889 Z M 58.241054,63.926492 c -0.906159,-0.527788 -0.866675,-1.788729 0.07173,-2.290952 0.414158,-0.221652 1.456577,-0.403002 2.316486,-0.403002 1.668625,0 2.427464,0.710619 2.099217,1.965829 -0.285342,1.091154 -3.084393,1.545324 -4.487437,0.728125 z m 21.197677,-0.04668 c -0.667441,-0.66744 -0.577121,-2.132475 0.148632,-2.410971 1.047871,-0.402107 3.486565,-0.260579 3.978004,0.230861 0.701474,0.701474 0.562819,1.790081 -0.28585,2.244276 -1.021846,0.546872 -3.267258,0.509363 -3.840786,-0.06417 z M 68.552196,62.924284 c -1.568231,-0.773024 -2.0994,-2.346187 -1.051007,-3.112788 0.600288,-0.438942 0.853173,-0.429377 1.600928,0.06057 1.041719,0.682561 2.529629,0.75846 3.128493,0.159596 0.232247,-0.232249 0.836644,-0.363639 1.343103,-0.291979 0.725043,0.102582 0.92084,0.368792 0.92084,1.25199 0,0.882263 -0.289561,1.276996 -1.356495,1.849201 -1.651949,0.885946 -2.911285,0.908853 -4.585862,0.0834 z m -9.157795,-3.490632 c -0.152576,-0.152572 -0.27741,-1.117984 -0.27741,-2.145353 0,-1.462293 0.167152,-1.957404 0.769688,-2.279869 0.604677,-0.323614 0.925064,-0.256553 1.494415,0.312799 0.574615,0.574614 0.677254,1.080435 0.49555,2.442077 -0.196949,1.475923 -0.368041,1.733554 -1.217,1.832558 -0.54331,0.06336 -1.112669,-0.0097 -1.265243,-0.162212 z m 20.633185,0 c -0.152576,-0.152572 -0.277411,-1.117984 -0.277411,-2.145353 0,-1.423312 0.172537,-1.960285 0.724832,-2.255865 1.304982,-0.698406 2.067818,0.296648 1.927759,2.514601 -0.11001,1.742103 -0.21995,1.945039 -1.109937,2.048829 -0.543312,0.06336 -1.11267,-0.0097 -1.265243,-0.162212 z"
     id="path6505"
     sodipodi:nodetypes="cscsccsscsssssscsssssscscccccscssscsscsssssccssssccscsssccssscccccssccssccsssssssssscssscssssscsssssssssssssssscscccssssssssssssssssssscsssssccssssc" /></g></svg>
