<?xml version="1.0" encoding="UTF-8" standalone="no"?>
<!-- Generator: Adobe Illustrator 16.0.0, SVG Export Plug-In . SVG Version: 6.00 Build 0)  -->

<svg
   version="1.1"
   id="Layer_1"
   x="0px"
   y="0px"
   width="141.73"
   height="141.73"
   viewBox="0 0 141.73 141.73"
   enable-background="new 0 0 141.73 141.73"
   xml:space="preserve"
   sodipodi:docname="roids.svg.2022_10_04_20_46_11.0.svg"
   inkscape:version="1.2.1 (9c6d41e410, 2022-07-14)"
   inkscape:export-filename="/home/carlos/roids/macos/icons/icon_1024x1024.png"
   inkscape:export-xdpi="693.60052"
   inkscape:export-ydpi="693.60052"
   xmlns:inkscape="http://www.inkscape.org/namespaces/inkscape"
   xmlns:sodipodi="http://sodipodi.sourceforge.net/DTD/sodipodi-0.dtd"
   xmlns="http://www.w3.org/2000/svg"
   xmlns:svg="http://www.w3.org/2000/svg"><defs
   id="defs33" /><sodipodi:namedview
   id="namedview31"
   pagecolor="#ffffff"
   bordercolor="#666666"
   borderopacity="1.0"
   inkscape:pageshadow="2"
   inkscape:pageopacity="0.0"
   inkscape:pagecheckerboard="0"
   showgrid="false"
   units="px"
   inkscape:zoom="4.1459518"
   inkscape:cx="72.962739"
   inkscape:cy="69.103553"
   inkscape:window-width="1920"
   inkscape:window-height="1011"
   inkscape:window-x="1920"
   inkscape:window-y="32"
   inkscape:window-maximized="1"
   inkscape:current-layer="Layer_1"
   inkscape:showpageshadow="2"
   inkscape:deskcolor="#d1d1d1" />



<circle
   style="display:inline;fill:#202727;fill-opacity:1;fill-rule:evenodd;stroke-width:1.11613"
   id="path57"
   cx="70.864998"
   cy="70.864998"
   r="70.864998"
   inkscape:label="bg" /><path
   d="m 52.754004,111.53816 -19.214608,2.93292 c -1.52777,0.23137 -3.047845,-0.47094 -3.857901,-1.78735 l -7.164822,-11.64809 c -0.399641,-0.64999 -0.582277,-1.389769 -0.561242,-2.125957 -0.0031,-0.06158 -0.0092,-0.121576 -0.0092,-0.183652 V 74.085736 c 0,-2.125443 1.722718,-3.847646 3.847641,-3.847646 2.124924,0 3.847641,1.722203 3.847641,3.847646 v 10.22293 L 45.023832,56.914478 52.754,70.106757 Z M 115.93536,70.23758 c -2.12544,0 -3.84764,1.722203 -3.84764,3.847638 V 84.308142 L 96.705875,56.914478 88.975704,70.107273 v 41.431387 l 19.214606,2.93294 c 1.52675,0.23188 3.04785,-0.47096 3.85842,-1.78787 l 7.1643,-11.64809 c 0.39965,-0.64949 0.58177,-1.389256 0.56073,-2.125433 0.003,-0.06158 0.01,-0.121597 0.01,-0.183673 V 74.086245 c 0,-2.125952 -1.72271,-3.848665 -3.84763,-3.848665 z m -34.65494,41.46321 -6.56818,4.89778 v 6.37889 c 0,2.12543 -1.722205,3.84763 -3.847641,3.84763 -2.124926,0 -3.847644,-1.7222 -3.847644,-3.84763 v -6.37889 l -6.56818,-4.89778 V 69.062765 c 0,-0.683857 -0.182121,-1.355395 -0.527896,-1.945364 L 49.388088,49.141215 67.509454,16.868739 c 0.681289,-1.212777 1.964349,-1.963836 3.355145,-1.963836 1.391307,0 2.673853,0.751059 3.355143,1.963836 L 92.341105,49.141215 81.808316,67.117401 C 81.462543,67.70737 81.28042,68.378908 81.28042,69.062765 Z M 81.26246,50.104666 c 1.638581,-1.352319 1.87098,-3.777358 0.519175,-5.416967 -0.445301,-0.540208 -4.534574,-5.275886 -10.819568,-5.275886 -6.21933,0 -10.47636,4.659751 -10.941155,5.191238 -1.399516,1.599079 -1.247663,4.04105 0.351932,5.440052 0.733103,0.641274 1.638068,0.95678 2.538929,0.95678 1.064514,0 2.122872,-0.440683 2.880602,-1.307171 0.650507,-0.719253 2.847255,-2.586129 5.170206,-2.586129 2.727208,0 4.883425,2.478394 4.883425,2.478394 1.352318,1.639609 3.777358,1.872007 5.416454,0.519689 z"
   id="path121"
   style="display:inline;fill:#d2d6d8;fill-opacity:1;stroke-width:0.513019"
   inkscape:label="ship" /></svg>
